<svg width="300" height="160" viewBox="0 0 300 160" xmlns="http://www.w3.org/2000/svg">

  <defs>
    <!-- Тень -->
    <filter id="shadow" x="-30%" y="-30%" width="160%" height="160%">
      <feDropShadow dx="0" dy="10" stdDeviation="12" flood-color="#000" flood-opacity="0.35"></feDropShadow>
    </filter>

    <!-- Синий градиент кнопки -->
    <linearGradient id="btnGrad" x1="0" y1="0" x2="0" y2="1">
      <stop offset="0%" stop-color="#3a8ed8"></stop>
      <stop offset="100%" stop-color="#134e82"></stop>
    </linearGradient>

      <linearGradient id="bookStroke" x1="0" y1="0" x2="0" y2="1">
      <stop offset="0%" stop-color="#0E6AC9"></stop>
      <stop offset="25%" stop-color="#378DDE"></stop>
      <stop offset="50%" stop-color="#2B80CF"></stop>
      <stop offset="75%" stop-color="#2B5CCF"></stop>
      <stop offset="100%" stop-color="#2068AB"></stop>
    </linearGradient>

    <!-- Блик -->
    <linearGradient id="shine" x1="0" y1="0" x2="0" y2="1">
      <stop offset="0%" stop-color="#2b2b2b" stop-opacity="0.25"></stop>
      <stop offset="100%" stop-color="#3c3c43" stop-opacity="0"></stop>
    </linearGradient>
  </defs>

  <!-- Фон кнопки -->
  <rect x="10" y="10" width="280" height="140" rx="24" fill="url(#btnGrad)" filter="url(#shadow)"></rect>

  <!-- Верхний блик -->
  <rect x="25" y="20" width="250" height="45" rx="18" fill="url(#shine)"></rect>

  <!-- КНИГА -->
<g transform="translate(60,20) scale(0.5)">
  <g transform="scale(0.5,0.5) translate(0,0)"
     fill="#3a8ed8" stroke="none">
path d="M0 0 C244.53 0 489.06 0 741 0 C741 163.35 741 326.7 741 495 C496.47 495 251.94 495 0 495 C0 331.65 0 168.3 0 0 Z " fill="#3a8ed8" transform="translate(0,0)"/>
<path d="M0 0 C74.72318339 0 74.72318339 0 96 1 C96.94311035 1.0427002 97.8862207 1.08540039 98.85791016 1.12939453 C111.32816165 1.71275797 111.32816165 1.71275797 115.91015625 2.5 C120.3987523 3.22634677 124.89252301 3.38592853 129.4296875 3.60546875 C134.79352679 3.89676339 134.79352679 3.89676339 137 5 C138.40566036 5.2410892 139.81888648 5.43893305 141.234375 5.61328125 C142.10747314 5.72470459 142.98057129 5.83612793 143.88012695 5.95092773 C144.82718506 6.07024658 145.77424316 6.18956543 146.75 6.3125 C186.19940206 11.5051739 234.68547625 19.7158825 261 52.8125 C264.39357547 57.29104071 266.25083094 60.49788083 266.24609566 66.20863724 C266.25007775 67.2685869 266.25405985 68.32853655 266.25816262 69.4206059 C266.25233693 70.58402092 266.24651125 71.74743594 266.24050903 72.94610596 C266.24307231 74.80108173 266.24307231 74.80108173 266.24568737 76.69353175 C266.24841527 80.1278545 266.24215256 83.56195007 266.23213124 86.99624538 C266.22350404 90.69900447 266.22641639 94.40175639 266.22793579 98.10452271 C266.2289851 104.52039507 266.22270366 110.93622679 266.21146011 117.35208893 C266.19521436 126.62837241 266.18999806 135.90463621 266.18748413 145.18093237 C266.18310557 160.23065877 266.16979211 175.2803635 266.15087891 190.33007812 C266.13252426 204.95051973 266.11836572 219.57095545 266.10986328 234.19140625 C266.10933783 235.09242802 266.10881239 235.99344979 266.10827102 236.92177525 C266.10566097 241.4418822 266.10313354 245.96198918 266.10064721 250.4820962 C266.07990971 287.98807943 266.04467981 325.49403803 266 363 C265.45762192 362.59284256 264.91524384 362.18568512 264.35643005 361.76618958 C263.28365562 360.96117256 263.28365562 360.96117256 262.18920898 360.13989258 C261.12814186 359.34353142 261.12814186 359.34353142 260.04563904 358.53108215 C250.46182999 351.35796963 240.69017212 345.40548441 230.00854492 340.01660156 C228.67719923 339.34275648 227.35166748 338.65729042 226.0324707 337.95996094 C221.10103228 335.39065035 216.1076194 333.55274948 210.8125 331.875 C209.25607185 331.37375559 207.70006939 330.87118713 206.14453125 330.3671875 C205.41572754 330.13161133 204.68692383 329.89603516 203.93603516 329.65332031 C202.44169388 329.1490508 200.97029465 328.57647912 199.51171875 327.9765625 C195.75864254 326.51735713 191.88661258 325.54105694 188 324.5 C179.65384615 322.26442308 179.65384615 322.26442308 176.34375 320.92578125 C173.42339174 319.77223974 170.5917913 319.24498007 167.5 318.6875 C166.83782471 318.56705322 166.17564941 318.44660645 165.4934082 318.32250977 C155.62575325 316.54483694 145.73840339 314.87370913 135.85546875 313.18359375 C131.58832665 312.45279492 127.3273337 311.69767057 123.0703125 310.91015625 C111.66790788 308.82456682 100.13401283 307.76428529 88.5925293 306.78515625 C79.70197567 306.01929388 70.88173912 304.9868599 62 304 C41.54 303.01 21.08 302.02 0 301 C0 201.67 0 102.34 0 0 Z " fill="white" transform="translate(99,40)"/>
<path d="M0 0 C0 99.33 0 198.66 0 301 C-11.88 301.66 -23.76 302.32 -36 303 C-45.1117967 303.72728086 -45.1117967 303.72728086 -54.21875 304.51171875 C-58.23736722 304.86561544 -62.25440527 305.15176512 -66.28125 305.39453125 C-100.00908928 307.45665816 -135.79227363 310.49822049 -168.328125 319.96875 C-173.94529586 321.54633841 -179.63737514 322.80778237 -185.33203125 324.07421875 C-191.76855542 325.55650948 -197.82908841 327.66151562 -204 330 C-205.9432995 330.70638592 -207.88732291 331.41078322 -209.83203125 332.11328125 C-228.63003524 338.98969136 -245.20595404 347.10520433 -261.22314453 359.15795898 C-262.28856979 359.95906349 -262.28856979 359.95906349 -263.3755188 360.77635193 C-263.9115976 361.18015579 -264.44767639 361.58395966 -265 362 C-265.16027417 323.69727489 -265.28359403 285.39460035 -265.35745731 247.09160767 C-265.3662121 242.56806993 -265.37527237 238.04453285 -265.38452148 233.52099609 C-265.38635766 232.62045354 -265.38819383 231.71991098 -265.39008565 230.79207925 C-265.42053252 216.21671498 -265.47571767 201.64154426 -265.54006957 187.06629474 C-265.60556484 172.10715438 -265.64441876 157.14811527 -265.65861946 142.18883741 C-265.66821725 132.96043359 -265.6985137 123.7325769 -265.75541527 114.50434153 C-265.79245991 108.17341271 -265.8035911 101.84276612 -265.79450964 95.51173683 C-265.79003248 91.86059246 -265.79682146 88.21040306 -265.83443832 84.55942917 C-265.87498354 80.5951472 -265.86087632 76.63209935 -265.84178162 72.66763306 C-265.86217151 71.52169509 -265.8825614 70.37575711 -265.90356916 69.19509375 C-265.76879783 58.83007034 -261.02404347 53.15287663 -254.1875 45.8125 C-244.18229047 36.24982858 -232.04440498 29.8931179 -219.140625 25.17578125 C-216.93706202 24.35081551 -214.75946562 23.45467879 -212.60546875 22.5078125 C-208.80228583 20.91731563 -205.01950992 19.69551568 -201.0625 18.5625 C-200.32523682 18.35004639 -199.58797363 18.13759277 -198.82836914 17.91870117 C-196.5546789 17.27007993 -194.2781502 16.6327644 -192 16 C-191.31131836 15.80728516 -190.62263672 15.61457031 -189.91308594 15.41601562 C-181.24978094 13.02237343 -172.7605487 11.40618746 -163.81640625 10.4921875 C-161.00951058 10.13019277 -158.46321164 9.66827103 -155.73046875 9.01171875 C-150.44418909 7.78620915 -145.15106572 7.35831474 -139.75 6.9375 C-137.82792134 6.78245232 -135.90603622 6.62498219 -133.984375 6.46484375 C-133.14616211 6.399021 -132.30794922 6.33319824 -131.44433594 6.26538086 C-128.91931188 5.99123971 -126.48900394 5.49914781 -124 5 C-121.20591853 4.80160368 -118.42198849 4.63202568 -115.625 4.5 C-111.58346713 4.30720603 -107.61566439 4.09078922 -103.609375 3.5 C-98.95173054 2.85478518 -94.3203723 2.68110722 -89.625 2.5 C-87.82540552 2.42998696 -86.02592062 2.35709504 -84.2265625 2.28125 C-83.43846191 2.25095703 -82.65036133 2.22066406 -81.83837891 2.18945312 C-79.48789309 2.03256537 -77.18866458 1.78733715 -74.85205078 1.50219727 C-69.61666397 0.90489396 -64.40588785 0.77530506 -59.140625 0.68359375 C-58.11555847 0.66281265 -57.09049194 0.64203156 -56.03436279 0.62062073 C-53.86946317 0.57757773 -51.70452347 0.53651043 -49.53955078 0.49731445 C-46.30099696 0.43842729 -43.06262529 0.37308848 -39.82421875 0.30664062 C-37.70052836 0.26523707 -35.57683058 0.22421045 -33.453125 0.18359375 C-32.5179303 0.16485703 -31.5827356 0.1461203 -30.61920166 0.1268158 C-20.40943627 -0.05358882 -10.21722497 0 0 0 Z " fill="white" transform="translate(646,40)"/>
<path d="M0 0 C244.53 0 489.06 0 741 0 C741 163.35 741 326.7 741 495 C496.47 495 251.94 495 0 495 C0 331.65 0 168.3 0 0 Z M83 20 C82.81824219 21.2065625 82.63648438 22.413125 82.44921875 23.65625 C82.19575578 25.27090298 81.94182447 26.88548249 81.6875 28.5 C81.56955078 29.29148437 81.45160156 30.08296875 81.33007812 30.8984375 C80.47012477 36.27865846 79.03239581 40.94501555 77 46 C76.4820574 47.56971378 75.97859871 49.14440917 75.5 50.7265625 C75.2525 51.5309375 75.005 52.3353125 74.75 53.1640625 C74.24782096 54.81183748 73.74783893 56.46028355 73.25 58.109375 C72.13936473 61.70737052 71.01829468 64.96383413 69.3125 68.3359375 C67.70537026 71.1030567 67.70537026 71.1030567 68 75 C55.46 75 42.92 75 30 75 C30 203.04 30 331.08 30 463 C123.38853815 463.09133747 123.38853815 463.09133747 216.77709961 463.11767578 C234.82727051 463.15405273 234.82727051 463.15405273 243.2736969 463.17868042 C249.18089425 463.19384036 255.08781224 463.19266841 260.99501038 463.1803894 C267.80926482 463.16628129 274.62312334 463.17294352 281.43732211 463.20514899 C284.92251157 463.22097023 288.4070117 463.22754027 291.89219463 463.20739388 C295.62815054 463.19082136 299.3621714 463.21106918 303.0980072 463.24050903 C304.18039956 463.22692289 305.26279192 463.21333675 306.37798405 463.19933891 C312.96493212 463.29986794 316.85965504 464.50880682 322.05905443 468.6165446 C324.06970544 470.04968422 325.58945463 470.57074567 328 471 C328 471.66 328 472.32 328 473 C330.20804559 473.79247664 332.41642497 474.5840013 334.625 475.375 C335.85476563 475.81585938 337.08453125 476.25671875 338.3515625 476.7109375 C349.29196319 480.57638956 358.30436186 482.39000856 369.9375 482.375 C371.22769043 482.37338867 372.51788086 482.37177734 373.84716797 482.37011719 C383.78451931 482.24292308 392.57893911 481.07626478 402 478 C402.99257813 477.71125 403.98515625 477.4225 405.0078125 477.125 C413.83760132 474.30751753 421.34634014 469.10243991 429 464 C429 463.34 429 462.68 429 462 C523.71 462 618.42 462 716 462 C716 334.62 716 207.24 716 76 C703.79 75.67 691.58 75.34 679 75 C671.31740558 57.42315519 665.60054686 40.06136129 663 21 C609.46672743 20.63199376 609.46672743 20.63199376 556 23 C554.91799316 23.06944824 553.83598633 23.13889648 552.72119141 23.21044922 C538.65959212 24.11505038 524.6778982 25.79292877 510.6875 27.4375 C509.80298157 27.54091705 508.91846313 27.64433411 508.00714111 27.75088501 C490.17509344 29.84885831 472.61938452 32.24197159 455.25 36.875 C453.34927734 37.36419922 453.34927734 37.36419922 451.41015625 37.86328125 C439.71372768 40.92748323 428.2854633 44.65943719 417 49 C416.01 49.33 415.02 49.66 414 50 C414 50.66 414 51.32 414 52 C413.15953125 52.0825 412.3190625 52.165 411.453125 52.25 C407.38932338 53.13263565 404.24636072 54.84385838 400.75 57 C400.09249756 57.40081787 399.43499512 57.80163574 398.75756836 58.21459961 C392.91109289 61.87696058 387.89485888 66.13955137 383 71 C381.85337891 72.10794922 381.85337891 72.10794922 380.68359375 73.23828125 C377.79594582 76.06394032 375.24770343 78.62844485 373 82 C372.31035156 81.2265625 371.62070312 80.453125 370.91015625 79.65625 C363.15642472 71.02926921 355.58708701 63.1634243 345.41015625 57.375 C343.17022487 56.0971137 341.02893546 54.72878633 338.875 53.3125 C335.71921434 51.3306666 332.61210118 49.95325764 329.09765625 48.734375 C326.88359978 47.95924908 324.73069542 47.08266021 322.5625 46.1875 C320.71012173 45.45380198 318.85572288 44.72519697 317 44 C315.8553125 43.54496094 314.710625 43.08992188 313.53125 42.62109375 C301.3176798 37.94569516 288.71982358 35.28707734 275.94140625 32.61914062 C273.4972802 32.10467319 271.06056131 31.5687478 268.625 31.015625 C267.08358028 30.67596073 265.54188399 30.33755048 264 30 C262.97334229 29.76901611 261.94668457 29.53803223 260.88891602 29.30004883 C249.65632136 26.89509297 238.35892066 25.59582311 226.9375 24.4375 C225.88089172 24.32983307 224.82428345 24.22216614 223.73565674 24.11123657 C176.95393839 19.42784793 129.9605253 19.68841358 83 20 Z " fill="transparent" transform="translate(0,0)"/>
<path d="M0 0 C5.94 0 11.88 0 18 0 C17.18818425 1.52071263 16.3763685 3.04142527 15.53995228 4.6082201 C12.41146103 11.53836452 12.29882208 17.75668446 12.36076355 25.26847839 C12.35444333 26.68114306 12.3459361 28.09379933 12.33544922 29.50643921 C12.31305146 33.3681135 12.32149993 37.22918606 12.33513759 41.09087823 C12.3444997 45.32667597 12.32472178 49.5623593 12.30871296 53.79812336 C12.28199523 62.01034635 12.28079003 70.22237303 12.28863304 78.43462782 C12.29660033 87.93913272 12.27260864 97.44338225 12.24865723 106.94787598 C12.20116639 132.02771397 12.1969738 157.10761883 12.1875 182.1875 C12.125625 238.225625 12.06375 294.26375 12 352 C220.56 352 429.12 352 644 352 C643.938125 296.10625 643.87625 240.2125 643.8125 182.625 C643.80581299 164.96564941 643.79912598 147.30629883 643.79223633 129.11181641 C643.76236736 113.30484802 643.76236736 113.30484802 643.72587585 97.49789429 C643.70977919 90.44828581 643.70728771 83.39883284 643.71403503 76.34921265 C643.72177062 68.21807677 643.7122325 60.0871794 643.68140606 51.95609488 C643.66618047 47.7970559 643.65867858 43.63841368 643.67339098 39.47936368 C643.68655845 35.7150794 643.67661029 31.95157808 643.64855957 28.18738174 C643.63958775 26.18852711 643.65508591 24.18960834 643.67158031 22.19080162 C643.59226207 15.08083941 642.70610623 10.05404883 639.07127684 3.88674867 C638 2 638 2 638 0 C643.94 0 649.88 0 656 0 C656 118.47 656 236.94 656 359 C517.9375 359.125 517.9375 359.125 474.30834961 359.11767578 C461.42724363 359.1441986 461.42724363 359.1441986 448.54615784 359.17868042 C442.79887008 359.19385165 437.05186931 359.19266039 431.30458069 359.1803894 C424.67701142 359.1662952 418.0498494 359.17290938 411.42233751 359.20514899 C408.03143891 359.22099168 404.64183373 359.22417726 401.25085247 359.20739388 C397.61911746 359.19085798 393.9893831 359.21102516 390.35777283 359.24050903 C389.30067391 359.22692289 388.243575 359.21333675 387.15444279 359.19933891 C381.03530433 359.29576685 377.68400733 360.13954396 373.34335905 364.57165039 C372.90005057 365.04300576 372.45674208 365.51436113 372 366 C369.3733198 367.7711651 366.61801032 369.21868712 363.8125 370.6875 C363.13380859 371.06455078 362.45511719 371.44160156 361.75585938 371.83007812 C351.4409354 377.29765577 341.06990865 378.50105345 329.50927734 378.39111328 C327.50158804 378.37501274 325.49591052 378.39106395 323.48828125 378.41015625 C312.6210016 378.3779728 302.93364278 376.55144755 292.9375 372.3125 C291.87402344 371.87550781 290.81054688 371.43851562 289.71484375 370.98828125 C287.378578 369.92243863 285.96011088 368.95856154 284.16236401 367.09098816 C274.43236436 357.7346688 261.09454067 359.90033537 248.50708008 360 C245.7523106 359.99686131 242.99763667 359.98169147 240.24290752 359.96704102 C233.6273977 359.93876785 227.01260574 359.95131595 220.39711643 359.97846508 C212.73829117 360.0081117 205.08016683 359.98641509 197.42126465 359.96484375 C177.21836463 359.93310692 157.01540381 359.97077288 136.8125 360 C91.664375 360 46.51625 360 0 360 C0 241.2 0 122.4 0 0 Z " 
fill="url(#bookStroke)"
     
      stroke-width="12"
      stroke-linejoin="round"
       transform="translate(45 90)" />
<path d="M0 0 C1.08071777 -0.00418945 2.16143555 -0.00837891 3.27490234 -0.01269531 C4.46293457 -0.00334961 5.6509668 0.00599609 6.875 0.015625 C8.12104004 0.02239258 9.36708008 0.02916016 10.65087891 0.03613281 C36.78625086 0.31392814 62.70412347 2.67610633 88.66139221 5.58808899 C93.55529038 6.13317117 98.45081947 6.59284106 103.35791016 7.00390625 C113.7155938 7.88966079 123.77503106 9.8917035 133.9375 12.046875 C137.87820251 12.88108783 141.81317156 13.59090494 145.79296875 14.2109375 C152.37125046 15.27895851 158.75340445 16.92061017 165.1875 18.640625 C166.37738525 18.95588135 167.56727051 19.2711377 168.79321289 19.59594727 C171.12785824 20.21457486 173.46210539 20.83470777 175.79589844 21.45654297 C178.27814654 22.10879243 180.76190009 22.73507702 183.2578125 23.33203125 C193.88636221 25.93660992 203.83786078 29.96683439 213.875 34.265625 C215.02548828 34.75337402 215.02548828 34.75337402 216.19921875 35.25097656 C232.21450811 42.11966305 248.42496602 51.96184546 258.875 66.265625 C258.875 66.925625 258.875 67.585625 258.875 68.265625 C164.165 68.265625 69.455 68.265625 -28.125 68.265625 C-27.42787469 64.08287315 -26.75500528 60.81655852 -25.40234375 56.91015625 C-25.0451123 55.86553223 -24.68788086 54.8209082 -24.31982422 53.74462891 C-23.92553223 52.59655762 -23.53124023 51.44848633 -23.125 50.265625 C-22.24577223 47.64636736 -21.37507233 45.02429195 -20.50390625 42.40234375 C-20.0385589 41.00581024 -19.57306221 39.60932648 -19.10742188 38.21289062 C-18.87337646 37.51075439 -18.63933105 36.80861816 -18.39819336 36.08520508 C-17.69189453 33.96630859 -16.9855957 31.84741211 -16.27929688 29.72851562 C-16.04769867 29.03339874 -15.81610046 28.33828186 -15.57748413 27.62210083 C-15.11441954 26.23355439 -14.65058157 24.84526562 -14.1859436 23.45724487 C-13.0167037 19.96111972 -11.86237967 16.4611689 -10.73388672 12.95166016 C-10.50990707 12.26167435 -10.28592743 11.57168854 -10.05516052 10.86079407 C-9.43888648 8.96034567 -8.82850911 7.05798803 -8.21850586 5.15551758 C-6.40181304 0.35440284 -4.85640646 0.01157863 0 0 Z " fill="white" transform="translate(101.125,358.734375)"/>
<path d="M0 0 C2.57083076 -0.0024488 5.14157957 -0.00099933 7.71240234 0.00488281 C15.71240234 17.07267942 15.71240234 17.07267942 15.71240234 25.00488281 C16.37240234 25.00488281 17.03240234 25.00488281 17.71240234 25.00488281 C17.81037109 25.62234375 17.90833984 26.23980469 18.00927734 26.87597656 C18.15880859 27.72289062 18.30833984 28.56980469 18.46240234 29.44238281 C18.67123047 30.67794922 18.67123047 30.67794922 18.88427734 31.93847656 C19.80274896 35.339421 21.16474414 38.31907239 22.62939453 41.51391602 C24.5236012 45.87067676 25.9783491 50.37039914 27.46240234 54.87988281 C27.77822266 55.81574219 28.09404297 56.75160156 28.41943359 57.71582031 C28.71720703 58.61300781 29.01498047 59.51019531 29.32177734 60.43457031 C29.58958008 61.2413623 29.85738281 62.0481543 30.13330078 62.87939453 C30.71240234 65.00488281 30.71240234 65.00488281 30.71240234 68.00488281 C-63.99759766 68.00488281 -158.70759766 68.00488281 -256.28759766 68.00488281 C-250.37127978 53.21408812 -232.07606559 42.90168442 -218.02587891 36.52441406 C-216.78232504 36.01169951 -215.53591202 35.50589547 -214.28759766 35.00488281 C-213.47967773 34.67657471 -212.67175781 34.3482666 -211.83935547 34.01000977 C-209.01463245 32.87027636 -206.18314979 31.74873996 -203.35009766 30.62988281 C-202.41875 30.25605469 -201.48740234 29.88222656 -200.52783203 29.49707031 C-186.85851384 24.10687327 -173.09722198 20.29445045 -158.72509766 17.37988281 C-157.3349739 17.09154156 -155.94499949 16.80247934 -154.55517578 16.51269531 C-151.14574815 15.80413236 -147.73392695 15.10810866 -144.32080078 14.41760254 C-142.24966312 13.99718248 -140.17972775 13.57117135 -138.10986328 13.14453125 C-136.77200883 12.87124212 -135.43411956 12.59812341 -134.09619141 12.32519531 C-132.91468506 12.0830127 -131.73317871 11.84083008 -130.51586914 11.59130859 C-126.7436943 10.90608104 -123.02000113 10.58562787 -119.20043945 10.30712891 C-115.84876503 9.95934809 -112.61381911 9.31951908 -109.30712891 8.66894531 C-96.77783572 6.35739709 -84.0790369 5.28463454 -71.40594864 4.07621002 C-69.33226234 3.8781796 -67.25881887 3.67774015 -65.18539429 3.47698975 C-43.43830779 1.38041634 -21.8539264 0.03245793 0 0 Z " fill="white" transform="translate(642.28759765625,358.9951171875)"/>
<path d="M0 0 C2.00240043 0.00251452 4.00480118 0.00479472 6.00720215 0.00683594 C10.85506964 0.01227848 15.70292192 0.02087141 20.55078125 0.03125 C20.5531696 0.59355159 20.55555796 1.15585318 20.55801868 1.73519421 C20.61717902 15.42320107 20.6929242 29.11102987 20.78649616 42.79884624 C20.83124593 49.41821262 20.87049209 56.03751678 20.8972168 62.65698242 C20.92320351 69.04373142 20.96357352 75.43024161 21.01396751 81.81684303 C21.03066751 84.25488124 21.04216222 86.69296077 21.04839516 89.1310482 C21.05800191 92.54294312 21.08602132 95.95422273 21.1184082 99.3659668 C21.11697311 100.37657166 21.11553802 101.38717651 21.11405945 102.42840576 C21.18846914 109.23083148 21.18846914 109.23083148 24.55078125 115.03125 C28.9786426 117.81153503 33.5066965 118.90067928 38.55078125 120.03125 C38.91639752 127.46544742 38.91639752 127.46544742 37.51274109 129.63764954 C34.50780839 131.77208446 31.41600342 131.42375375 27.86645508 131.37182617 C27.08573135 131.37226425 26.30500763 131.37270233 25.50062561 131.37315369 C22.91943372 131.37106324 20.33889095 131.3477206 17.7578125 131.32421875 C15.96848404 131.31862369 14.17915098 131.31435317 12.38981628 131.31135559 C7.67969073 131.29989968 2.96984259 131.27042611 -1.74017334 131.23724365 C-6.54614509 131.20655883 -11.35216166 131.19285365 -16.15820312 131.17773438 C-25.58866357 131.1455571 -35.01891809 131.09435175 -44.44921875 131.03125 C-44.44921875 127.40125 -44.44921875 123.77125 -44.44921875 120.03125 C-43.485 119.78890625 -42.52078125 119.5465625 -41.52734375 119.296875 C-39.63242188 118.79414063 -39.63242188 118.79414063 -37.69921875 118.28125 C-36.44625 117.95640625 -35.19328125 117.6315625 -33.90234375 117.296875 C-30.16946438 115.92871559 -28.78926084 115.19935262 -26.44921875 112.03125 C-26.04954108 109.03045031 -25.89186948 106.39569373 -25.91577148 103.39477539 C-25.90715591 102.5244014 -25.89854034 101.6540274 -25.8896637 100.75727844 C-25.86696556 97.88085164 -25.87374987 95.00539612 -25.8828125 92.12890625 C-25.87757838 90.12877614 -25.87130268 88.12864851 -25.86402893 86.12852478 C-25.85361743 81.93623237 -25.85819665 77.74427923 -25.87280273 73.55200195 C-25.88998595 68.18036705 -25.86650473 62.80980224 -25.83131313 57.43828678 C-25.80934819 53.30754003 -25.81077854 49.17704964 -25.81907845 45.04626274 C-25.81989857 43.06592066 -25.81302353 41.08555987 -25.79830742 39.10527229 C-25.78087954 36.3352199 -25.79538915 33.56709414 -25.81811523 30.79711914 C-25.80057693 29.57116028 -25.80057693 29.57116028 -25.78268433 28.32043457 C-25.85391014 24.05178885 -26.07259725 22.49841249 -28.85047913 19.05271912 C-31.24255069 17.19200989 -32.94817582 16.13264177 -35.82421875 15.28125 C-36.59378906 15.05308594 -37.36335937 14.82492188 -38.15625 14.58984375 C-41.25236738 13.83559369 -44.28087437 13.36830791 -47.44921875 13.03125 C-47.44921875 9.07125 -47.44921875 5.11125 -47.44921875 1.03125 C-31.6222339 0.15631303 -15.84743567 -0.03497001 0 0 Z " fill="#3a8ed8" transform="translate(238.44921875,156.96875)"/>
<path d="M0 0 C0.33 0 0.66 0 1 0 C1.09165398 33.41073453 1.16208862 66.82143765 1.20426132 100.23227007 C1.20926385 104.18113273 1.21444117 108.12999514 1.21972656 112.07885742 C1.2207758 112.86496969 1.22182505 113.65108195 1.22290608 114.4610158 C1.24028796 127.17192959 1.27181337 139.88277065 1.30861118 152.59364136 C1.34608244 165.64647284 1.36824889 178.69926635 1.37635398 191.7521494 C1.38182897 199.79961668 1.39909016 207.84687836 1.43166587 215.89428232 C1.45540753 222.07609983 1.45780429 228.25776219 1.45243073 234.43961906 C1.45352773 236.9674989 1.46143838 239.4953868 1.4768219 242.02322006 C1.61862518 266.53457025 1.61862518 266.53457025 -3 277 C-3.28252499 277.65747317 -3.56504997 278.31494635 -3.85613632 278.99234295 C-4.10986134 279.57236978 -4.36358635 280.1523966 -4.625 280.75 C-6.08201877 284.19386254 -6.76804876 287.40871175 -7.375 291.08203125 C-8 293 -8 293 -11 295 C-11.2064963 260.96116336 -11.36483751 226.92248396 -11.45958797 192.88315894 C-11.47084284 188.85447799 -11.48249189 184.82579826 -11.49438477 180.79711914 C-11.49674556 179.99516167 -11.49910635 179.1932042 -11.50153869 178.36694499 C-11.54058339 165.42201992 -11.61147868 152.47745862 -11.69437516 139.53274856 C-11.77886749 126.22677385 -11.82859789 112.9209882 -11.84679645 99.61475629 C-11.85907829 91.41954793 -11.89770754 83.2253681 -11.9712482 75.03047677 C-12.0192296 69.3927682 -12.0331105 63.75558268 -12.0215124 58.1176853 C-12.01580915 54.87589085 -12.02894678 51.63622721 -12.07284927 48.39467621 C-12.28952885 31.55559288 -9.9320975 18.92081756 -2 4 C-1.32997832 2.66834946 -0.66232634 1.33549468 0 0 Z " fill="white" transform="translate(83,82)"/>
<path d="M0 0 C12.22314401 15.70346747 13.27998175 33.11994311 13.02172852 52.26098633 C13.01918381 54.93408345 13.0202323 57.60695905 13.02571106 60.2800293 C13.03038665 65.98988679 13.00261543 71.69880503 12.95157051 77.40842628 C12.87782227 85.66298421 12.85492672 93.91709693 12.84367859 102.17194851 C12.82407437 115.57086183 12.76443717 128.96927663 12.67895508 142.36791992 C12.59609954 155.36854594 12.5325143 168.36903562 12.49438477 181.36987305 C12.49202025 182.17383166 12.48965574 182.97779026 12.48721958 183.80611125 C12.4754726 187.84011039 12.46409962 191.87411049 12.45291245 195.90811121 C12.35990363 229.27243538 12.20164406 262.63615613 12 296 C9.55893521 292.87435845 8.21302063 290.21910828 6.9921875 286.4296875 C6.64542969 285.36878906 6.29867187 284.30789063 5.94140625 283.21484375 C5.58949219 282.11269531 5.23757813 281.01054687 4.875 279.875 C4.16519559 277.68452834 3.45431269 275.49440577 2.7421875 273.3046875 C2.4313623 272.33515137 2.12053711 271.36561523 1.80029297 270.36669922 C1.06683613 268.01939125 1.06683613 268.01939125 0 266 C-0.09307849 264.53560967 -0.12373802 263.06702904 -0.12304783 261.59968376 C-0.12503888 260.66911844 -0.12702993 259.73855312 -0.12908131 258.77978885 C-0.12471205 257.23603901 -0.12471205 257.23603901 -0.12025452 255.66110229 C-0.12110894 254.57316852 -0.12196337 253.48523474 -0.12284368 252.36433327 C-0.12449954 248.6945326 -0.11897536 245.02477697 -0.11352539 241.35498047 C-0.11324352 238.73402915 -0.11340126 236.11307774 -0.1139679 233.49212646 C-0.11449301 227.83688764 -0.11134747 222.18166033 -0.10573006 216.52642441 C-0.09761342 208.34983784 -0.09499967 200.17325685 -0.09374207 191.99666668 C-0.0915518 178.73166135 -0.08489241 165.46666216 -0.07543945 152.20166016 C-0.06626467 139.31363964 -0.05918416 126.42562078 -0.05493164 113.53759766 C-0.05466892 112.74358228 -0.05440619 111.9495669 -0.05413551 111.13149045 C-0.0528305 107.14826878 -0.05156679 103.16504709 -0.05032361 99.1818254 C-0.0399518 66.12121246 -0.02233418 33.06060705 0 0 Z " fill="white" transform="translate(662,82)"/>
<path d="M0 0 C4.46550257 2.95349907 9.0019003 7.20225151 10.9140625 12.30859375 C12.24919802 21.55440722 12.44066678 29.69610396 6.8515625 37.5234375 C1.61851807 43.80057494 -5.35911679 46.58117444 -13.359375 47.8984375 C-20.05432253 48.2680324 -25.30655411 46.28207583 -30.7734375 42.47265625 C-36.08625019 37.60175959 -39.37366798 33.08595771 -40.1796875 25.80078125 C-40.46095179 18.36542376 -40.3778727 12.26685989 -35.48828125 6.23828125 C-25.96305705 -3.5690111 -12.65597437 -5.90471045 0 0 Z " fill="#3a8ed8" transform="translate(246.7734375,86.52734375)"/>
<path d="M0 0 C3.375 4.5 3.375 4.5 4 8 C3.01 7.67 2.02 7.34 1 7 C1 92.47 1 177.94 1 266 C0.67 266 0.34 266 0 266 C0 178.22 0 90.44 0 0 Z " fill="white" transform="translate(662,82)"/>
<path d="M0 0 C0.33 0 0.66 0 1 0 C1 85.47 1 170.94 1 259 C0.67 259 0.34 259 0 259 C-0.33 176.17 -0.66 93.34 -1 8 C-1.66 8 -2.32 8 -3 8 C-1.125 2.25 -1.125 2.25 0 0 Z " fill="white" transform="translate(83,82)"/>
<path d="M0 0 C3.375 4.5 3.375 4.5 4 8 C3.01 7.67 2.02 7.34 1 7 C1 23.5 1 40 1 57 C0.67 57 0.34 57 0 57 C0 38.19 0 19.38 0 0 Z " fill="#3a8ed8" transform="translate(662,82)"/>
<path d="M0 0 C0.99 0 1.98 0 3 0 C3.33 2.97 3.66 5.94 4 9 C2 8 2 8 1.3671875 6.15234375 C1.20476563 5.42144531 1.04234375 4.69054687 0.875 3.9375 C0.70742188 3.20402344 0.53984375 2.47054688 0.3671875 1.71484375 C0.24601563 1.14894531 0.12484375 0.58304687 0 0 Z " fill="#0F4EA1" transform="translate(669,366)"/>
<path d="M0 0 C2.15377564 2.62198774 3.40072174 4.64404172 4 8 C3.01 7.67 2.02 7.34 1 7 C0.67 7.66 0.34 8.32 0 9 C0 6.03 0 3.06 0 0 Z " fill="white" transform="translate(662,82)"/>
<path d="M0 0 C3.3 0.99 6.6 1.98 10 3 C10 3.33 10 3.66 10 4 C6.05272412 4.17942163 3.4019487 4.09350689 0 2 C0 1.34 0 0.68 0 0 Z " fill="white" transform="translate(332,474)"/>
</g>
</g>
</svg>
